<svg xmlns="http://www.w3.org/2000/svg" viewBox="0 0 32 32"><defs><style>.cls-1{fill:#68c7d3;}.cls-2{fill:#d1e6e9;}.cls-3{fill:#a1d8df;}.cls-4{fill:#30acc2;}</style></defs><title>Scale</title><g id="Scale"><path class="cls-1" d="M31,7v5L29.19,29.21a2,2,0,0,1-2,1.79H4.8a2,2,0,0,1-2-1.79L1,12V7A2,2,0,0,1,3,5H6A14.38,14.38,0,0,1,26,5h3A2,2,0,0,1,31,7Z"/><path class="cls-2" d="M4.8,29C2.71,9.1,3,13.52,3,7H6.83a11.76,11.76,0,0,1,9.51-4c3.8,0,6.39,1.56,8.83,4H29c0,6.52.3,2.07-1.8,22Z"/><path class="cls-3" d="M25.17,7,23,11A24.61,24.61,0,0,0,9,11L6.83,7a11.74,11.74,0,0,1,8.83-4A11.76,11.76,0,0,1,25.17,7Z"/><path class="cls-4" d="M17,7v3c-.88,0-1.12,0-2,0V7Z"/><rect class="cls-3" x="15" y="15" width="2" height="14"/><rect class="cls-3" x="7" y="17" width="6" height="2"/><rect class="cls-3" x="7" y="21" width="6" height="2"/><rect class="cls-3" x="7" y="25" width="6" height="2"/><rect class="cls-3" x="19" y="17" width="6" height="2" transform="translate(44 36) rotate(-180)"/><rect class="cls-3" x="19" y="21" width="6" height="2" transform="translate(44 44) rotate(-180)"/><rect class="cls-3" x="19" y="25" width="6" height="2" transform="translate(44 52) rotate(-180)"/></g></svg>