<svg xmlns="http://www.w3.org/2000/svg" width="128" height="128" viewBox="0 0 128 128">
  <title>PET SHOP</title>
  <g>
    <path d="M104.21,105.636V72.6a8.756,8.756,0,0,0,3.43-6.931V57.85c0-.048-.01-.092-.014-.139s-.006-.092-.014-.138a1.771,1.771,0,0,0-.077-.3c-.008-.02-.009-.042-.016-.062l-.016-.04v0L95.778,27.35a1.75,1.75,0,0,0-1.628-1.11H85.034A22.144,22.144,0,0,0,64.065,10.99h-.071A22.115,22.115,0,0,0,42.977,26.23H33.93A1.749,1.749,0,0,0,32.3,27.336L20.482,57.206c-.008.022-.01.046-.017.069a1.693,1.693,0,0,0-.077.294c-.007.047-.01.094-.014.141s-.014.092-.014.14v7.82A8.752,8.752,0,0,0,23.79,72.6v33.034a4.965,4.965,0,0,0-3.431,4.7V115.2a1.75,1.75,0,0,0,1.75,1.75h83.782a1.75,1.75,0,0,0,1.75-1.75v-4.859A4.965,4.965,0,0,0,104.21,105.636Zm-43.482-.27V80.413a1.751,1.751,0,0,0-1.75-1.75h-21.8a1.75,1.75,0,0,0-1.75,1.75v24.953H27.29V74.2A8.55,8.55,0,0,0,36.07,70.9a8.7,8.7,0,0,0,13.969,0A8.691,8.691,0,0,0,64,70.9a8.691,8.691,0,0,0,13.961,0,8.7,8.7,0,0,0,13.969,0,8.557,8.557,0,0,0,8.78,3.307v31.162Zm-21.8,0v-23.2h18.3v23.2ZM23.86,59.6H34.32v6.07a5.24,5.24,0,0,1-5.23,5.24,5.041,5.041,0,0,1-2.663-.739,5.234,5.234,0,0,1-2.567-4.5Zm38.39,0v6.07a5.23,5.23,0,1,1-10.46,0V59.6Zm13.96,0v6.07a5.23,5.23,0,1,1-10.46,0V59.6Zm13.97,0v6.07a5.235,5.235,0,1,1-10.47,0V59.6Zm11.373,10.583a5.019,5.019,0,0,1-2.643.727,5.24,5.24,0,0,1-5.23-5.24V59.6h10.46v6.07A5.244,5.244,0,0,1,101.553,70.183ZM48.29,65.67a5.235,5.235,0,1,1-10.47,0V59.6H48.29ZM64,14.49h.06a18.645,18.645,0,0,1-.047,37.29h-.051a18.678,18.678,0,0,1-18.6-18.69,19.228,19.228,0,0,1,.6-4.669A18.626,18.626,0,0,1,64,14.49ZM35.12,29.73h7.016a22.79,22.79,0,0,0-.276,3.346,22.183,22.183,0,0,0,22.085,22.2h.062A22.15,22.15,0,0,0,86.15,33.194v0a22.664,22.664,0,0,0-.271-3.45h7.079L103.322,56.1h-10.2L89.3,46.379A1.75,1.75,0,1,0,86.04,47.66l3.318,8.44H38.642l3.318-8.44A1.75,1.75,0,1,0,38.7,46.379L34.881,56.1h-10.2Zm69.021,83.72H23.859v-3.109a1.477,1.477,0,0,1,1.475-1.475H25.5c.014,0,.028,0,.043,0s.029,0,.044,0h76.832c.015,0,.029,0,.044,0s.029,0,.043,0h.162a1.477,1.477,0,0,1,1.476,1.475Z"/>
    <path d="M64,46.887a7.934,7.934,0,1,0-7.934-7.934A7.943,7.943,0,0,0,64,46.887ZM64,34.52a4.434,4.434,0,1,1-4.434,4.433A4.438,4.438,0,0,1,64,34.52Z"/>
    <path d="M64,28.982a4.8,4.8,0,1,0-4.8-4.8A4.805,4.805,0,0,0,64,28.982Zm0-6.1a1.3,1.3,0,1,1-1.3,1.3A1.3,1.3,0,0,1,64,22.881Z"/>
    <path d="M52.592,34.4a4.8,4.8,0,1,0-4.8-4.8A4.806,4.806,0,0,0,52.592,34.4Zm0-6.1a1.3,1.3,0,1,1-1.3,1.3A1.3,1.3,0,0,1,52.592,28.3Z"/>
    <path d="M75.408,34.4a4.8,4.8,0,1,0-4.8-4.8A4.805,4.805,0,0,0,75.408,34.4Zm0-6.1a1.3,1.3,0,1,1-1.3,1.3A1.3,1.3,0,0,1,75.408,28.3Z"/>
    <path d="M92.907,78.663h-21.8a1.75,1.75,0,0,0-1.75,1.75v21.068a1.75,1.75,0,0,0,1.75,1.75h21.8a1.751,1.751,0,0,0,1.75-1.75V80.413A1.751,1.751,0,0,0,92.907,78.663Zm-1.75,21.068h-18.3V82.163h18.3Z"/>
    <path d="M79.557,96.311a1.75,1.75,0,0,0,2.475.038l6.137-5.958a1.75,1.75,0,1,0-2.437-2.512l-6.138,5.958A1.749,1.749,0,0,0,79.557,96.311Z"/>
    <path d="M78.5,91.5a1.741,1.741,0,0,0,1.218-.494l3.095-3a1.75,1.75,0,1,0-2.438-2.511l-3.094,3A1.75,1.75,0,0,0,78.5,91.5Z"/>
    <path d="M43.4,93.689a1.75,1.75,0,1,0,1.75,1.749A1.75,1.75,0,0,0,43.4,93.689Z"/>
  </g>
</svg>
