<svg xmlns="http://www.w3.org/2000/svg" viewBox="0 0 32 32"><defs><style>.cls-1{fill:#68c7d3;}.cls-2{fill:#d1e6e9;}.cls-3{fill:#a1d8df;}.cls-4{fill:#30acc2;}</style></defs><title>Medal</title><g id="Medal"><rect class="cls-1" x="12" y="11" width="8" height="3"/><circle class="cls-2" cx="16" cy="22" r="9"/><circle class="cls-3" cx="16" cy="22" r="6"/><polygon class="cls-4" points="16 19.15 16.91 21.05 19 21.33 17.47 22.78 17.85 24.85 16 23.84 14.15 24.85 14.53 22.78 13 21.33 15.09 21.05 16 19.15"/><rect class="cls-3" x="14" y="1" width="4" height="10"/><polygon class="cls-4" points="14 11 12 11 10 9 10 1 14 1 14 11"/><polygon class="cls-4" points="18 11 20 11 22 9 22 1 18 1 18 11"/></g></svg>