<svg xmlns="http://www.w3.org/2000/svg" viewBox="0 0 48 48"><title>Playing video game</title><g id="Playing_video_game" data-name="Playing video game"><path d="M36.61,23.57a1.5,1.5,0,0,0,2.78-1.14A1.5,1.5,0,0,0,36.61,23.57Z"/><path d="M39.39,28.43a1.5,1.5,0,1,0-2.64,1.4A1.5,1.5,0,0,0,39.39,28.43Z"/><path d="M42.38,25.43a1.5,1.5,0,1,0-2.63,1.4A1.49,1.49,0,0,0,42.38,25.43Z"/><path d="M36.06,24.94a1.5,1.5,0,0,0-2.31,1.89A1.5,1.5,0,1,0,36.06,24.94Z"/><path d="M47.8,40.09C46,32.59,45.4,31,45.92,27.23a9,9,0,0,0-13.84-8.76A3.33,3.33,0,0,1,30,19V16h6a3,3,0,0,0,3-3V3a3,3,0,0,0-3-3H12A3,3,0,0,0,9,3V13a3,3,0,0,0,3,3h6v3a3.26,3.26,0,0,1-2.08-.53A9,9,0,0,0,2.23,24c-.7,3.1.61,4.73-.34,8.89C1.33,35.31.71,37.92.2,40.08a6.46,6.46,0,0,0,2.88,7A6.31,6.31,0,0,0,12,44.48l3.85-7.81A4.49,4.49,0,0,0,21.24,35h5.52a4.49,4.49,0,0,0,5.41,1.67L36,44.48A6.32,6.32,0,0,0,47.8,40.09ZM37,3V13a1,1,0,0,1-1,1H34V2h2A1,1,0,0,1,37,3ZM11,13V3a1,1,0,0,1,1-1h2V14H12A1,1,0,0,1,11,13ZM16,2H32V14H16Zm4,14h8v3H20ZM17.5,35A2.5,2.5,0,1,1,20,32.5,2.5,2.5,0,0,1,17.5,35ZM28,32.5A2.5,2.5,0,1,1,30.5,35,2.5,2.5,0,0,1,28,32.5Zm9.82,11.1-4-8.1A4.49,4.49,0,1,0,26.05,33H22a4.49,4.49,0,1,0-7.77,2.51l-4,8.09a4.32,4.32,0,0,1-8-3.06C3.87,33.23,4.65,31.15,4.07,27a7,7,0,0,1,5.46-7.81c4.33-.88,5.12,1.85,8.09,1.85,14.25,0,13.89.23,15.55-.86a7,7,0,0,1,10.65,4.28c.58,2.59-.69,4.42.34,8.9.56,2.44,1.18,5,1.69,7.22C47.09,45.78,40,48.12,37.82,43.6Z"/><path d="M11,24V23a1,1,0,0,0-2,0v1A1,1,0,0,0,11,24Z"/><path d="M9,28v1a1,1,0,0,0,2,0V28A1,1,0,0,0,9,28Z"/><path d="M8,25H7a1,1,0,0,0,0,2H8A1,1,0,0,0,8,25Z"/><path d="M13,25H12a1,1,0,0,0,0,2h1A1,1,0,0,0,13,25Z"/><path d="M25,27H23a1,1,0,0,0,0,2h2A1,1,0,0,0,25,27Z"/><path d="M20,23H19a1,1,0,0,0,0,2h1A1,1,0,0,0,20,23Z"/><path d="M29,23H28a1,1,0,0,0,0,2h1A1,1,0,0,0,29,23Z"/></g></svg>