<svg xmlns="http://www.w3.org/2000/svg" viewBox="0 0 32 32"><defs><style>.cls-1{fill:#68c7d3;}.cls-2{fill:#d1e6e9;}.cls-3{fill:#30acc2;}.cls-4{fill:#a1d8df;}</style></defs><title>Smartwatch</title><g id="Smartwatch"><rect class="cls-1" x="6" y="6" width="18" height="20" rx="2"/><rect class="cls-2" x="7" y="9" width="16" height="14" transform="translate(31 1) rotate(90)"/><path class="cls-3" d="M22,6C6.51,6,8.1,5.9,8,6c1.28-1.28,1.38-2.52,2-5H20C20.62,3.49,20.75,4.75,22,6Z"/><path class="cls-3" d="M22,26c-15.49,0-13.9.1-14,0,1.28,1.28,1.38,2.52,2,5H20C20.62,28.51,20.75,27.25,22,26Z"/><rect class="cls-1" x="13" y="28" width="4" height="3"/><rect class="cls-1" x="13" y="1" width="4" height="3"/><path class="cls-4" d="M19,12.2c0,2.8-2,4.34-4,5.8-2-1.46-4-3-4-5.8,0-2.14,2.36-2.79,4-1.63C16.63,9.4,19,10.07,19,12.2Z"/><rect class="cls-1" x="11" y="20" width="8" height="2"/><path class="cls-4" d="M24,11h1a1,1,0,0,1,1,1v2a1,1,0,0,1-1,1H24a0,0,0,0,1,0,0V11A0,0,0,0,1,24,11Z"/></g></svg>